<svg xmlns="http://www.w3.org/2000/svg" xmlns:v="https://svgstorm.com"
viewBox = "0 0 631 279"
width="631"
height="279">
<g fill="None" fill-opacity="0.0" stroke="#000000" stroke-opacity="0.00" stroke-width="0.3"><path d="
M 0.00 279.00 
L 631.00 279.00
L 631.00 0.00
L 0.00 0.00
L 0.00 279.00
M 217.00 38.00 
C 218.59 38.34 220.39 37.74 222.00 38.00
C 226.16 50.18 233.01 61.37 236.00 74.00
C 235.31 63.10 238.60 49.70 237.00 38.00
C 238.00 38.11 239.73 37.53 240.00 39.00
C 241.28 38.70 245.78 37.19 247.00 38.00
C 250.65 40.42 247.24 53.40 248.00 58.00 C 248.76 62.60 248.14 74.44 248.00 79.00 C 247.86 83.56 250.06 97.16 246.00 98.00
C 245.11 98.19 243.91 98.00 243.00 98.00
C 242.27 98.58 238.42 101.76 234.00 100.00
C 234.00 99.00 234.00 98.00 234.00 97.00
C 231.31 92.56 229.47 86.40 227.69 81.31 C 225.92 76.21 221.68 69.94 220.00 66.00
C 220.84 76.60 219.37 87.38 220.00 98.00
C 218.67 98.00 217.33 98.00 216.00 98.00
C 211.47 100.34 211.23 99.12 207.00 98.00
C 206.00 97.73 204.03 97.85 203.00 98.00
C 191.61 99.61 197.58 88.87 192.00 82.00
C 188.53 82.31 184.47 82.31 181.00 82.00
C 181.38 87.76 177.28 92.12 178.00 98.00
C 175.33 98.00 172.67 98.00 170.00 98.00
C 168.36 97.80 166.65 98.15 165.00 98.00
C 165.86 92.57 167.43 87.19 168.93 81.93 C 170.42 76.66 172.05 70.29 172.99 64.99 C 173.94 59.69 176.93 53.68 177.78 48.78 C 178.62 43.87 180.84 33.78 184.00 40.00
C 186.95 40.18 190.50 36.26 194.00 38.00
C 197.00 56.69 204.10 74.29 207.00 93.00
C 207.09 88.24 208.03 81.47 208.00 76.00 C 207.97 70.53 206.96 62.14 208.00 57.00 C 209.04 51.86 205.19 42.02 208.00 38.00
C 209.81 35.41 215.11 37.59 217.00 38.00
M 296.00 39.00 
C 297.43 39.21 300.16 36.83 302.00 38.00
C 303.57 49.51 307.62 60.36 309.00 72.00
C 310.56 62.51 318.33 49.65 318.00 38.00
C 319.28 38.28 321.50 37.24 322.00 39.00
C 325.14 38.70 327.91 38.55 331.00 38.00
C 336.43 37.03 342.87 36.81 349.00 37.00 C 355.13 37.19 361.93 36.06 366.00 39.00
C 368.67 40.92 370.09 42.03 369.00 47.00
C 360.33 47.00 351.67 47.00 343.00 47.00
C 342.46 52.61 344.16 58.82 342.00 64.00
C 349.33 64.00 356.67 64.00 364.00 64.00
C 367.39 77.19 350.59 70.35 343.00 72.00
C 343.00 78.33 343.00 84.67 343.00 91.00
C 345.91 93.04 352.41 89.94 356.00 91.00 C 359.59 92.06 365.22 90.20 369.00 91.00
C 372.02 100.94 362.82 99.11 356.00 99.00 C 349.18 98.89 341.86 99.08 335.00 99.00
C 333.46 98.91 331.92 98.14 331.00 98.00
C 329.71 97.80 328.31 98.10 327.00 98.00
C 324.20 98.83 318.55 101.95 319.00 95.00 C 319.46 88.05 318.87 85.55 319.00 79.00
C 318.00 84.91 314.41 91.29 315.00 98.00
C 313.33 98.00 311.67 98.00 310.00 98.00
C 308.88 98.21 306.78 99.86 305.00 99.00
C 303.75 93.18 303.87 84.62 300.00 81.00
C 300.25 84.62 301.59 97.25 298.00 98.00
C 297.19 98.17 295.72 97.63 295.00 98.00
C 293.44 98.80 290.55 101.54 287.00 100.00
C 287.00 79.00 287.00 58.00 287.00 37.00
C 289.76 37.84 295.57 35.04 296.00 39.00
M 67.00 39.00 
C 73.88 39.98 82.26 42.01 84.00 50.00
C 84.00 47.24 82.74 39.58 85.00 38.00
C 88.55 35.52 101.61 38.51 105.00 39.00
C 106.99 39.08 108.63 39.72 110.00 40.00
C 120.09 40.42 130.73 51.23 124.00 63.00
C 136.56 61.86 149.41 63.85 162.00 63.00
C 164.43 73.04 153.94 69.66 147.00 70.00 C 140.06 70.34 131.12 69.75 124.00 70.00
C 124.00 68.00 124.00 66.00 124.00 64.00
C 120.93 66.94 117.76 69.97 114.00 72.00
C 118.21 80.82 123.09 89.54 126.00 99.00
C 124.67 99.00 123.33 99.00 122.00 99.00
C 118.02 100.26 114.41 100.50 113.00 98.00
C 111.10 94.63 109.75 87.21 107.68 84.32 C 105.60 81.44 104.23 72.74 101.00 72.00
C 99.75 72.33 98.27 71.75 97.00 72.00
C 97.00 81.00 97.00 90.00 97.00 99.00
C 95.33 99.00 93.67 99.00 92.00 99.00
C 89.78 99.54 86.17 101.26 84.00 99.00
C 83.73 96.06 84.00 92.96 84.00 90.00
C 81.02 98.27 67.53 100.60 60.00 97.00
C 45.88 95.36 40.31 80.45 41.00 65.00 C 41.69 49.55 50.66 36.67 67.00 39.00
M 270.00 39.00 
C 271.19 39.42 272.78 38.68 274.00 39.00
C 274.00 59.00 274.00 79.00 274.00 99.00
C 272.67 99.00 271.33 99.00 270.00 99.00
C 268.26 99.61 264.61 101.31 263.00 99.00
C 259.84 94.49 264.46 84.73 263.00 79.00 C 261.54 73.27 263.73 65.31 263.00 59.00 C 262.27 52.69 263.55 44.48 263.00 38.00
C 265.19 38.52 268.62 36.86 270.00 39.00
M 391.00 39.00 
C 401.14 39.78 411.87 40.67 411.00 54.00
C 408.00 54.00 405.00 54.00 402.00 54.00
C 405.75 43.94 385.31 42.51 386.00 53.00 C 386.70 63.50 397.57 62.85 405.25 67.75 C 412.92 72.66 415.22 82.94 410.08 91.08 C 404.94 99.23 394.78 99.63 386.00 97.00
C 378.80 96.27 370.98 91.65 371.00 82.00
C 372.67 82.00 374.33 82.00 376.00 82.00
C 385.83 79.79 385.70 93.06 397.00 91.00
C 406.21 86.77 399.60 74.50 394.00 71.00
C 392.22 70.22 390.01 68.92 388.00 68.00
C 380.87 66.12 372.99 62.35 374.00 52.00 C 375.01 41.65 382.40 38.34 391.00 39.00 Z"/>
</g>
<g fill="None" fill-opacity="0.0" stroke="#070707" stroke-opacity="0.59" stroke-width="0.3"><path d="
M 208.00 38.00 
C 209.68 36.95 212.08 38.93 213.00 39.00
C 214.71 39.13 216.03 38.12 217.00 38.00
C 215.11 37.59 209.81 35.41 208.00 38.00 Z"/>
</g>
<g fill="None" fill-opacity="0.0" stroke="#000000" stroke-opacity="0.85" stroke-width="0.3"><path d="
M 295.00 98.00 
C 294.00 97.95 293.00 98.04 292.00 98.00
C 292.00 78.33 292.00 58.67 292.00 39.00
C 293.33 39.00 294.67 39.00 296.00 39.00
C 295.57 35.04 289.76 37.84 287.00 37.00
C 287.00 58.00 287.00 79.00 287.00 100.00
C 290.55 101.54 293.44 98.80 295.00 98.00 Z"/>
</g>
<g fill="None" fill-opacity="0.0" stroke="#000000" stroke-opacity="0.85" stroke-width="0.3"><path d="
M 331.00 38.00 
C 328.27 41.90 331.74 53.00 331.00 58.00 C 330.26 63.00 330.25 73.01 331.00 78.00 C 331.75 82.99 328.26 94.14 331.00 98.00
C 331.92 98.14 333.46 98.91 335.00 99.00
C 335.60 92.93 334.20 85.98 335.00 80.00 C 335.80 74.02 333.53 65.57 335.00 60.00 C 336.47 54.43 331.89 44.44 335.00 40.00
C 337.35 36.64 345.90 39.99 350.00 39.00 C 354.10 38.01 361.59 39.74 366.00 39.00
C 361.93 36.06 355.13 37.19 349.00 37.00 C 342.87 36.81 336.43 37.03 331.00 38.00 Z"/>
</g>
<g fill="None" fill-opacity="0.0" stroke="#000000" stroke-opacity="1.00" stroke-width="0.3"><path d="
M 60.00 97.00 
C 40.56 87.70 42.09 39.75 67.00 39.00
C 50.66 36.67 41.69 49.55 41.00 65.00 C 40.31 80.45 45.88 95.36 60.00 97.00 Z"/>
</g>
<g fill="None" fill-opacity="0.0" stroke="#000000" stroke-opacity="0.50" stroke-width="0.3"><path d="
M 84.00 50.00 
C 84.00 51.66 83.91 53.35 84.00 55.00
C 84.28 50.13 85.87 43.59 85.00 38.00
C 82.74 39.58 84.00 47.24 84.00 50.00 Z"/>
</g>
<g fill="None" fill-opacity="0.0" stroke="#000000" stroke-opacity="0.99" stroke-width="0.3"><path d="
M 84.00 55.00 
C 84.10 56.79 83.88 58.44 84.00 60.00
C 84.35 64.67 85.00 70.64 85.00 76.00
C 85.00 79.59 84.40 82.74 84.00 86.00
C 84.01 89.54 85.39 94.68 85.00 99.00
C 86.33 99.00 87.67 99.00 89.00 99.00
C 89.60 92.93 88.20 85.98 89.00 80.00 C 89.80 74.02 87.54 65.57 89.00 60.00 C 90.47 54.43 85.89 44.44 89.00 40.00
C 90.76 37.49 101.86 38.87 105.00 39.00
C 101.61 38.51 88.55 35.52 85.00 38.00
C 85.87 43.59 84.28 50.13 84.00 55.00 Z"/>
</g>
<g fill="None" fill-opacity="0.0" stroke="#000000" stroke-opacity="1.00" stroke-width="0.3"><path d="
M 170.00 98.00 
C 172.84 96.05 171.11 86.73 173.32 83.32 C 175.54 79.92 175.49 73.12 176.98 68.98 C 178.46 64.83 179.86 59.17 180.78 54.78 C 181.69 50.39 184.73 44.60 184.00 40.00
C 180.84 33.78 178.62 43.87 177.78 48.78 C 176.93 53.68 173.94 59.69 172.99 64.99 C 172.05 70.29 170.42 76.66 168.93 81.93 C 167.43 87.19 165.86 92.57 165.00 98.00
C 166.65 98.15 168.36 97.80 170.00 98.00 Z"/>
</g>
<g fill="None" fill-opacity="0.0" stroke="#F8F8F8" stroke-opacity="0.92" stroke-width="0.3"><path d="
M 184.00 40.00 
C 184.73 44.60 181.69 50.39 180.78 54.78 C 179.86 59.17 178.46 64.83 176.98 68.98 C 175.49 73.12 175.54 79.92 173.32 83.32 C 171.11 86.73 172.84 96.05 170.00 98.00
C 172.67 98.00 175.33 98.00 178.00 98.00
C 177.28 92.12 181.38 87.76 181.00 82.00
C 180.97 81.50 181.00 81.00 181.00 81.00
C 182.93 79.01 195.14 79.03 197.00 81.00
C 200.36 84.56 196.87 96.73 203.00 98.00
C 204.03 97.85 206.00 97.73 207.00 98.00
C 209.32 96.96 207.21 94.48 207.00 93.00
C 204.10 74.29 197.00 56.69 194.00 38.00
C 190.50 36.26 186.95 40.18 184.00 40.00
M 190.00 73.00 
C 188.04 73.29 185.97 72.78 184.00 73.00
C 183.98 69.17 186.81 66.07 186.00 62.00
C 186.59 58.71 187.56 54.71 189.00 52.00
C 191.01 58.90 193.16 65.77 194.00 73.00
C 192.67 73.00 191.33 73.00 190.00 73.00 Z"/>
</g>
<g fill="None" fill-opacity="0.0" stroke="#000000" stroke-opacity="0.96" stroke-width="0.3"><path d="
M 207.00 93.00 
C 207.21 94.48 209.32 96.96 207.00 98.00
C 211.23 99.12 211.47 100.34 216.00 98.00
C 215.30 97.98 213.62 98.30 213.00 98.00
C 209.26 96.16 212.95 83.70 212.00 79.00 C 211.05 74.30 212.26 64.63 212.00 59.00 C 211.74 53.37 211.36 44.02 213.00 39.00
C 212.08 38.93 209.68 36.95 208.00 38.00
C 205.19 42.02 209.04 51.86 208.00 57.00 C 206.96 62.14 207.97 70.53 208.00 76.00 C 208.03 81.47 207.09 88.24 207.00 93.00 Z"/>
</g>
<g fill="None" fill-opacity="0.0" stroke="#FAFAFA" stroke-opacity="0.95" stroke-width="0.3"><path d="
M 213.00 39.00 
C 213.00 58.67 213.00 78.33 213.00 98.00
C 213.62 98.30 215.30 97.98 216.00 98.00
C 217.33 98.00 218.67 98.00 220.00 98.00
C 219.37 87.38 220.84 76.60 220.00 66.00
C 219.71 62.31 217.48 57.16 220.00 54.00
C 225.69 68.81 232.64 83.10 238.00 98.00
C 239.64 98.15 241.36 98.00 243.00 98.00
C 243.91 98.00 245.11 98.19 246.00 98.00
C 246.66 78.09 244.68 57.47 247.00 38.00
C 245.78 37.19 241.28 38.70 240.00 39.00
C 243.03 44.26 238.61 54.91 240.00 61.00 C 241.39 67.09 239.79 76.55 239.00 82.00
C 238.39 79.22 236.93 76.72 236.00 74.00
C 233.01 61.37 226.16 50.18 222.00 38.00
C 220.39 37.74 218.59 38.34 217.00 38.00
C 216.03 38.12 214.71 39.13 213.00 39.00 Z"/>
</g>
<g fill="None" fill-opacity="0.0" stroke="#020202" stroke-opacity="1.00" stroke-width="0.3"><path d="
M 236.00 74.00 
C 236.93 76.72 238.39 79.22 239.00 82.00
C 239.79 76.55 241.39 67.09 240.00 61.00 C 238.61 54.91 243.03 44.26 240.00 39.00
C 239.73 37.53 238.00 38.11 237.00 38.00
C 238.60 49.70 235.31 63.10 236.00 74.00 Z"/>
</g>
<g fill="None" fill-opacity="0.0" stroke="#FFFFFF" stroke-opacity="0.46" stroke-width="0.3"><path d="
M 246.00 98.00 
C 250.06 97.16 247.86 83.56 248.00 79.00 C 248.14 74.44 248.76 62.60 248.00 58.00 C 247.24 53.40 250.65 40.42 247.00 38.00
C 244.68 57.47 246.66 78.09 246.00 98.00 Z"/>
</g>
<g fill="None" fill-opacity="0.0" stroke="#000000" stroke-opacity="0.99" stroke-width="0.3"><path d="
M 263.00 99.00 
C 264.00 99.00 265.00 99.00 266.00 99.00
C 265.12 89.29 265.80 76.52 266.00 67.00 C 266.20 57.48 262.78 43.43 270.00 39.00
C 268.62 36.86 265.19 38.52 263.00 38.00
C 263.55 44.48 262.27 52.69 263.00 59.00 C 263.73 65.31 261.54 73.27 263.00 79.00 C 264.46 84.73 259.84 94.49 263.00 99.00 Z"/>
</g>
<g fill="None" fill-opacity="0.0" stroke="#F5F5F5" stroke-opacity="0.93" stroke-width="0.3"><path d="
M 296.00 39.00 
C 294.67 39.00 293.33 39.00 292.00 39.00
C 292.00 58.67 292.00 78.33 292.00 98.00
C 293.00 98.04 294.00 97.95 295.00 98.00
C 295.72 97.63 297.19 98.17 298.00 98.00
C 297.46 89.72 298.27 80.50 299.00 73.00
C 298.65 67.90 298.43 61.29 300.00 57.00
C 303.32 70.51 304.24 85.83 310.00 98.00
C 311.67 98.00 313.33 98.00 315.00 98.00
C 314.41 91.29 318.00 84.91 319.00 79.00
C 319.07 75.38 319.41 72.43 320.00 69.00
C 320.69 64.98 322.12 61.25 322.00 57.00
C 324.32 69.43 322.34 83.82 323.00 97.00
C 324.52 97.56 325.28 97.87 327.00 98.00
C 328.31 98.10 329.71 97.80 331.00 98.00
C 328.26 94.14 331.75 82.99 331.00 78.00 C 330.25 73.01 330.26 63.00 331.00 58.00 C 331.74 53.00 328.27 41.90 331.00 38.00
C 327.91 38.55 325.14 38.70 322.00 39.00
C 317.49 42.16 319.15 54.09 316.22 59.22 C 313.30 64.36 314.87 75.18 311.00 80.00
C 309.57 77.96 309.53 74.64 309.00 72.00
C 307.62 60.36 303.57 49.51 302.00 38.00
C 300.16 36.83 297.43 39.21 296.00 39.00 Z"/>
</g>
<g fill="None" fill-opacity="0.0" stroke="#030303" stroke-opacity="0.99" stroke-width="0.3"><path d="
M 309.00 72.00 
C 309.53 74.64 309.57 77.96 311.00 80.00
C 314.87 75.18 313.30 64.36 316.22 59.22 C 319.15 54.09 317.49 42.16 322.00 39.00
C 321.50 37.24 319.28 38.28 318.00 38.00
C 318.33 49.65 310.56 62.51 309.00 72.00 Z"/>
</g>
<g fill="None" fill-opacity="0.0" stroke="#010101" stroke-opacity="1.00" stroke-width="0.3"><path d="
M 388.00 68.00 
C 374.58 61.87 374.49 41.20 391.00 39.00
C 382.40 38.34 375.01 41.65 374.00 52.00 C 372.99 62.35 380.87 66.12 388.00 68.00 Z"/>
</g>
<g fill="None" fill-opacity="0.0" stroke="#F60000" stroke-opacity="0.91" stroke-width="0.3"><path d="
M 60.00 97.00 
C 67.53 100.60 81.02 98.27 84.00 90.00
C 84.00 88.70 83.84 87.29 84.00 86.00
C 84.40 82.74 85.00 79.59 85.00 76.00
C 85.00 76.04 84.00 76.00 84.00 76.00
C 82.68 76.00 81.32 75.91 80.00 76.00
C 76.55 77.14 77.76 83.75 75.69 86.69 C 73.63 89.64 70.39 92.62 66.00 92.00
C 56.76 90.70 55.12 75.40 55.00 68.00 C 54.88 60.60 57.94 46.00 68.00 46.00
C 76.73 46.00 73.29 53.23 76.00 58.00
C 77.08 58.57 81.07 62.05 84.00 60.00
C 83.88 58.44 84.10 56.79 84.00 55.00
C 83.91 53.35 84.00 51.66 84.00 50.00
C 82.26 42.01 73.88 39.98 67.00 39.00
C 42.09 39.75 40.56 87.70 60.00 97.00 Z"/>
</g>
<g fill="None" fill-opacity="0.0" stroke="#590000" stroke-opacity="1.00" stroke-width="0.3"><path d="
M 89.00 40.00 
C 95.99 40.22 103.01 39.71 110.00 40.00
C 108.63 39.72 106.99 39.08 105.00 39.00
C 101.86 38.87 90.76 37.49 89.00 40.00 Z"/>
</g>
<g fill="None" fill-opacity="0.0" stroke="#6E6E6E" stroke-opacity="1.00" stroke-width="0.3"><path d="
M 213.00 98.00 
C 213.00 78.33 213.00 58.67 213.00 39.00
C 211.36 44.02 211.74 53.37 212.00 59.00 C 212.26 64.63 211.05 74.30 212.00 79.00 C 212.95 83.70 209.26 96.16 213.00 98.00 Z"/>
</g>
<g fill="None" fill-opacity="0.0" stroke="#6D6D6D" stroke-opacity="1.00" stroke-width="0.3"><path d="
M 266.00 99.00 
C 266.50 99.00 267.00 99.00 267.00 99.00
C 268.76 79.49 265.68 59.55 267.00 40.00
C 268.00 39.89 269.73 40.47 270.00 39.00
C 262.78 43.43 266.20 57.48 266.00 67.00 C 265.80 76.52 265.12 89.29 266.00 99.00 Z"/>
</g>
<g fill="None" fill-opacity="0.0" stroke="#FEFEFE" stroke-opacity="0.91" stroke-width="0.3"><path d="
M 267.00 99.00 
C 268.00 99.00 269.00 98.97 270.00 99.00
C 271.33 99.00 272.67 99.00 274.00 99.00
C 274.00 79.00 274.00 59.00 274.00 39.00
C 272.78 38.68 271.19 39.42 270.00 39.00
C 269.73 40.47 268.00 39.89 267.00 40.00
C 265.68 59.55 268.76 79.49 267.00 99.00 Z"/>
</g>
<g fill="None" fill-opacity="0.0" stroke="#606060" stroke-opacity="0.99" stroke-width="0.3"><path d="
M 335.00 40.00 
C 344.41 42.55 357.67 37.04 366.00 39.00
C 361.59 39.74 354.10 38.01 350.00 39.00 C 345.90 39.99 337.35 36.64 335.00 40.00 Z"/>
</g>
<g fill="None" fill-opacity="0.0" stroke="#F7F8F7" stroke-opacity="0.92" stroke-width="0.3"><path d="
M 335.00 40.00 
C 331.89 44.44 336.47 54.43 335.00 60.00 C 333.53 65.57 335.80 74.02 335.00 80.00 C 334.20 85.98 335.60 92.93 335.00 99.00
C 341.86 99.08 349.18 98.89 356.00 99.00 C 362.82 99.11 372.02 100.94 369.00 91.00
C 365.22 90.20 359.59 92.06 356.00 91.00 C 352.41 89.94 345.91 93.04 343.00 91.00
C 340.92 89.54 340.99 73.41 343.00 72.00
C 350.59 70.35 367.39 77.19 364.00 64.00
C 356.67 64.00 349.33 64.00 342.00 64.00
C 344.16 58.82 342.46 52.61 343.00 47.00
C 351.67 47.00 360.33 47.00 369.00 47.00
C 370.09 42.03 368.67 40.92 366.00 39.00
C 357.67 37.04 344.41 42.55 335.00 40.00 Z"/>
</g>
<g fill="None" fill-opacity="0.0" stroke="#F9F9F9" stroke-opacity="0.88" stroke-width="0.3"><path d="
M 388.00 68.00 
C 390.01 68.92 392.22 70.22 394.00 71.00
C 402.54 74.73 411.66 88.32 397.00 91.00
C 385.70 93.06 385.83 79.79 376.00 82.00
C 372.63 87.03 382.14 95.59 386.00 97.00
C 394.78 99.63 404.94 99.23 410.08 91.08 C 415.22 82.94 412.92 72.66 405.25 67.75 C 397.57 62.85 386.70 63.50 386.00 53.00 C 385.31 42.51 405.75 43.94 402.00 54.00
C 405.00 54.00 408.00 54.00 411.00 54.00
C 411.87 40.67 401.14 39.78 391.00 39.00
C 374.49 41.20 374.58 61.87 388.00 68.00 Z"/>
</g>
<g fill="None" fill-opacity="0.0" stroke="#F80000" stroke-opacity="0.90" stroke-width="0.3"><path d="
M 89.00 99.00 
C 89.99 99.00 91.01 98.94 92.00 99.00
C 93.67 99.00 95.33 99.00 97.00 99.00
C 97.00 90.00 97.00 81.00 97.00 72.00
C 98.27 71.75 99.75 72.33 101.00 72.00
C 108.15 70.12 106.10 79.52 109.92 83.08 C 113.75 86.63 112.65 97.16 117.00 99.00
C 118.50 99.22 120.49 99.15 122.00 99.00
C 123.33 99.00 124.67 99.00 126.00 99.00
C 123.09 89.54 118.21 80.82 114.00 72.00
C 117.76 69.97 120.93 66.94 124.00 64.00
C 124.09 63.52 124.00 63.00 124.00 63.00
C 130.73 51.23 120.09 40.42 110.00 40.00
C 103.01 39.71 95.99 40.22 89.00 40.00
C 85.89 44.44 90.47 54.43 89.00 60.00 C 87.54 65.57 89.80 74.02 89.00 80.00 C 88.20 85.98 89.60 92.93 89.00 99.00
M 112.00 48.00 
C 122.43 51.95 115.82 63.40 107.00 64.00
C 103.35 64.25 99.65 63.81 96.00 64.00
C 98.17 58.82 96.45 52.60 97.00 47.00
C 102.13 46.90 107.19 46.82 112.00 48.00 Z"/>
</g>
<g fill="None" fill-opacity="0.0" stroke="#000000" stroke-opacity="0.02" stroke-width="0.3"><path d="
M 66.00 92.00 
C 71.31 91.57 72.92 80.79 73.00 77.00
C 75.61 77.67 77.45 75.66 80.00 76.00
C 81.32 75.91 82.68 76.00 84.00 76.00
C 83.52 70.71 84.36 65.30 84.00 60.00
C 81.07 62.05 77.08 58.57 76.00 58.00
C 74.96 57.45 73.11 58.42 72.00 58.00
C 71.88 53.66 70.78 49.39 68.00 46.00
C 57.94 46.00 54.88 60.60 55.00 68.00 C 55.12 75.40 56.76 90.70 66.00 92.00 Z"/>
</g>
<g fill="None" fill-opacity="0.0" stroke="#000000" stroke-opacity="1.00" stroke-width="0.3"><path d="
M 76.00 58.00 
C 73.29 53.23 76.73 46.00 68.00 46.00
C 70.78 49.39 71.88 53.66 72.00 58.00
C 73.11 58.42 74.96 57.45 76.00 58.00 Z"/>
</g>
<g fill="None" fill-opacity="0.0" stroke="#000000" stroke-opacity="0.09" stroke-width="0.3"><path d="
M 107.00 64.00 
C 112.11 62.68 118.03 52.26 112.00 48.00
C 107.19 46.82 102.13 46.90 97.00 47.00
C 96.45 52.60 98.17 58.82 96.00 64.00
C 99.65 63.81 103.35 64.25 107.00 64.00 Z"/>
</g>
<g fill="None" fill-opacity="0.0" stroke="#050000" stroke-opacity="1.00" stroke-width="0.3"><path d="
M 107.00 64.00 
C 115.82 63.40 122.43 51.95 112.00 48.00
C 118.03 52.26 112.11 62.68 107.00 64.00 Z"/>
</g>
<g fill="None" fill-opacity="0.0" stroke="#010101" stroke-opacity="0.99" stroke-width="0.3"><path d="
M 186.00 62.00 
C 185.98 61.85 190.32 73.21 190.00 73.00
C 191.33 73.00 192.67 73.00 194.00 73.00
C 193.16 65.77 191.01 58.90 189.00 52.00
C 187.56 54.71 186.59 58.71 186.00 62.00 Z"/>
</g>
<g fill="None" fill-opacity="0.0" stroke="#020202" stroke-opacity="0.99" stroke-width="0.3"><path d="
M 220.00 66.00 
C 221.68 69.94 225.92 76.21 227.69 81.31 C 229.47 86.40 231.31 92.56 234.00 97.00
C 235.20 98.04 236.52 97.87 238.00 98.00
C 232.64 83.10 225.69 68.81 220.00 54.00
C 217.48 57.16 219.71 62.31 220.00 66.00 Z"/>
</g>
<g fill="None" fill-opacity="0.0" stroke="#020202" stroke-opacity="0.96" stroke-width="0.3"><path d="
M 299.00 73.00 
C 299.19 75.85 299.80 78.12 300.00 81.00
C 303.87 84.62 303.75 93.18 305.00 99.00
C 306.78 99.86 308.88 98.21 310.00 98.00
C 304.24 85.83 303.32 70.51 300.00 57.00
C 298.43 61.29 298.65 67.90 299.00 73.00 Z"/>
</g>
<g fill="None" fill-opacity="0.0" stroke="#000000" stroke-opacity="1.00" stroke-width="0.3"><path d="
M 320.00 69.00 
C 320.08 73.31 321.58 78.89 321.00 84.00 C 320.42 89.11 320.39 96.05 323.00 97.00
C 322.34 83.82 324.32 69.43 322.00 57.00
C 322.12 61.25 320.69 64.98 320.00 69.00 Z"/>
</g>
<g fill="None" fill-opacity="0.0" stroke="#000000" stroke-opacity="0.50" stroke-width="0.3"><path d="
M 84.00 76.00 
C 84.00 76.00 85.00 76.04 85.00 76.00
C 85.00 70.64 84.35 64.67 84.00 60.00
C 84.36 65.30 83.52 70.71 84.00 76.00 Z"/>
</g>
<g fill="None" fill-opacity="0.0" stroke="#000000" stroke-opacity="0.13" stroke-width="0.3"><path d="
M 190.00 73.00 
C 190.32 73.21 185.98 61.85 186.00 62.00
C 186.81 66.07 183.98 69.17 184.00 73.00
C 185.97 72.78 188.04 73.29 190.00 73.00 Z"/>
</g>
<g fill="None" fill-opacity="0.0" stroke="#000000" stroke-opacity="0.82" stroke-width="0.3"><path d="
M 124.00 64.00 
C 124.00 66.00 124.00 68.00 124.00 70.00
C 131.12 69.75 140.06 70.34 147.00 70.00 C 153.94 69.66 164.43 73.04 162.00 63.00
C 149.41 63.85 136.56 61.86 124.00 63.00
C 124.00 63.00 124.09 63.52 124.00 64.00 Z"/>
</g>
<g fill="None" fill-opacity="0.0" stroke="#000000" stroke-opacity="0.55" stroke-width="0.3"><path d="
M 319.00 79.00 
C 318.87 85.55 319.46 88.05 319.00 95.00 C 318.55 101.95 324.20 98.83 327.00 98.00
C 325.28 97.87 324.52 97.56 323.00 97.00
C 320.39 96.05 320.42 89.11 321.00 84.00 C 321.58 78.89 320.08 73.31 320.00 69.00
C 319.41 72.43 319.07 75.38 319.00 79.00 Z"/>
</g>
<g fill="None" fill-opacity="0.0" stroke="#020000" stroke-opacity="0.99" stroke-width="0.3"><path d="
M 101.00 72.00 
C 104.23 72.74 105.60 81.44 107.68 84.32 C 109.75 87.21 111.10 94.63 113.00 98.00
C 113.17 98.12 116.54 98.93 117.00 99.00
C 112.65 97.16 113.75 86.63 109.92 83.08 C 106.10 79.52 108.15 70.12 101.00 72.00 Z"/>
</g>
<g fill="None" fill-opacity="0.0" stroke="#040404" stroke-opacity="0.98" stroke-width="0.3"><path d="
M 397.00 91.00 
C 411.66 88.32 402.54 74.73 394.00 71.00
C 399.60 74.50 406.21 86.77 397.00 91.00 Z"/>
</g>
<g fill="None" fill-opacity="0.0" stroke="#FFFFFF" stroke-opacity="0.09" stroke-width="0.3"><path d="
M 343.00 91.00 
C 343.00 84.67 343.00 78.33 343.00 72.00
C 340.99 73.41 340.92 89.54 343.00 91.00 Z"/>
</g>
<g fill="None" fill-opacity="0.0" stroke="#FDFDFD" stroke-opacity="0.48" stroke-width="0.3"><path d="
M 298.00 98.00 
C 301.59 97.25 300.25 84.62 300.00 81.00
C 299.80 78.12 299.19 75.85 299.00 73.00
C 298.27 80.50 297.46 89.72 298.00 98.00 Z"/>
</g>
<g fill="None" fill-opacity="0.0" stroke="#030000" stroke-opacity="0.99" stroke-width="0.3"><path d="
M 66.00 92.00 
C 70.39 92.62 73.63 89.64 75.69 86.69 C 77.76 83.75 76.55 77.14 80.00 76.00
C 77.45 75.66 75.61 77.67 73.00 77.00
C 72.92 80.79 71.31 91.57 66.00 92.00 Z"/>
</g>
<g fill="None" fill-opacity="0.0" stroke="#A0A0A0" stroke-opacity="0.96" stroke-width="0.3"><path d="
M 181.00 81.00 
C 184.60 80.67 188.38 81.00 192.00 81.00
C 193.67 81.00 195.33 81.00 197.00 81.00
C 195.14 79.03 182.93 79.01 181.00 81.00 Z"/>
</g>
<g fill="None" fill-opacity="0.0" stroke="#000000" stroke-opacity="0.28" stroke-width="0.3"><path d="
M 181.00 82.00 
C 184.47 82.31 188.53 82.31 192.00 82.00
C 191.76 81.70 192.00 81.00 192.00 81.00
C 188.38 81.00 184.60 80.67 181.00 81.00
C 181.00 81.00 180.97 81.50 181.00 82.00 Z"/>
</g>
<g fill="None" fill-opacity="0.0" stroke="#000000" stroke-opacity="0.99" stroke-width="0.3"><path d="
M 192.00 82.00 
C 197.58 88.87 191.61 99.61 203.00 98.00
C 196.87 96.73 200.36 84.56 197.00 81.00
C 195.33 81.00 193.67 81.00 192.00 81.00
C 192.00 81.00 191.76 81.70 192.00 82.00 Z"/>
</g>
<g fill="None" fill-opacity="0.0" stroke="#020202" stroke-opacity="1.00" stroke-width="0.3"><path d="
M 386.00 97.00 
C 382.14 95.59 372.63 87.03 376.00 82.00
C 374.33 82.00 372.67 82.00 371.00 82.00
C 370.98 91.65 378.80 96.27 386.00 97.00 Z"/>
</g>
<g fill="None" fill-opacity="0.0" stroke="#000000" stroke-opacity="0.50" stroke-width="0.3"><path d="
M 84.00 90.00 
C 84.00 92.96 83.73 96.06 84.00 99.00
C 84.00 99.04 85.00 99.00 85.00 99.00
C 85.39 94.68 84.01 89.54 84.00 86.00
C 83.84 87.29 84.00 88.70 84.00 90.00 Z"/>
</g>
<g fill="None" fill-opacity="0.0" stroke="#000000" stroke-opacity="0.52" stroke-width="0.3"><path d="
M 243.00 98.00 
C 241.36 98.00 239.64 98.15 238.00 98.00
C 236.52 97.87 235.20 98.04 234.00 97.00
C 234.00 98.00 234.00 99.00 234.00 100.00
C 238.42 101.76 242.27 98.58 243.00 98.00 Z"/>
</g>
<g fill="None" fill-opacity="0.0" stroke="#000000" stroke-opacity="0.33" stroke-width="0.3"><path d="
M 122.00 99.00 
C 120.49 99.15 118.50 99.22 117.00 99.00
C 116.54 98.93 113.17 98.12 113.00 98.00
C 114.41 100.50 118.02 100.26 122.00 99.00 Z"/>
</g>
<g fill="None" fill-opacity="0.0" stroke="#000000" stroke-opacity="0.16" stroke-width="0.3"><path d="
M 92.00 99.00 
C 91.01 98.94 89.99 99.00 89.00 99.00
C 87.67 99.00 86.33 99.00 85.00 99.00
C 85.00 99.00 84.00 99.04 84.00 99.00
C 86.17 101.26 89.78 99.54 92.00 99.00 Z"/>
</g>
<g fill="None" fill-opacity="0.0" stroke="#000000" stroke-opacity="0.18" stroke-width="0.3"><path d="
M 270.00 99.00 
C 269.00 98.97 268.00 99.00 267.00 99.00
C 267.00 99.00 266.50 99.00 266.00 99.00
C 265.00 99.00 264.00 99.00 263.00 99.00
C 264.61 101.31 268.26 99.61 270.00 99.00 Z"/>
</g>
<g fill="#000000" fill-opacity="0.00" stroke="None">
<path d="
M 0.00 279.00 
L 631.00 279.00
L 631.00 0.00
L 0.00 0.00
L 0.00 279.00
M 217.00 38.00 
C 218.59 38.34 220.39 37.74 222.00 38.00
C 226.16 50.18 233.01 61.37 236.00 74.00
C 235.31 63.10 238.60 49.70 237.00 38.00
C 238.00 38.11 239.73 37.53 240.00 39.00
C 241.28 38.70 245.78 37.19 247.00 38.00
C 250.65 40.42 247.24 53.40 248.00 58.00 C 248.76 62.60 248.14 74.44 248.00 79.00 C 247.86 83.56 250.06 97.16 246.00 98.00
C 245.11 98.19 243.91 98.00 243.00 98.00
C 242.27 98.58 238.42 101.76 234.00 100.00
C 234.00 99.00 234.00 98.00 234.00 97.00
C 231.31 92.56 229.47 86.40 227.69 81.31 C 225.92 76.21 221.68 69.94 220.00 66.00
C 220.84 76.60 219.37 87.38 220.00 98.00
C 218.67 98.00 217.33 98.00 216.00 98.00
C 211.47 100.34 211.23 99.12 207.00 98.00
C 206.00 97.73 204.03 97.85 203.00 98.00
C 191.61 99.61 197.58 88.87 192.00 82.00
C 188.53 82.31 184.47 82.31 181.00 82.00
C 181.38 87.76 177.28 92.12 178.00 98.00
C 175.33 98.00 172.67 98.00 170.00 98.00
C 168.36 97.80 166.65 98.15 165.00 98.00
C 165.86 92.57 167.43 87.19 168.93 81.93 C 170.42 76.66 172.05 70.29 172.99 64.99 C 173.94 59.69 176.93 53.68 177.78 48.78 C 178.62 43.87 180.84 33.78 184.00 40.00
C 186.95 40.18 190.50 36.26 194.00 38.00
C 197.00 56.69 204.10 74.29 207.00 93.00
C 207.09 88.24 208.03 81.47 208.00 76.00 C 207.97 70.53 206.96 62.14 208.00 57.00 C 209.04 51.86 205.19 42.02 208.00 38.00
C 209.81 35.41 215.11 37.59 217.00 38.00
M 296.00 39.00 
C 297.43 39.21 300.16 36.83 302.00 38.00
C 303.57 49.51 307.62 60.36 309.00 72.00
C 310.56 62.51 318.33 49.65 318.00 38.00
C 319.28 38.28 321.50 37.24 322.00 39.00
C 325.14 38.70 327.91 38.55 331.00 38.00
C 336.43 37.03 342.87 36.81 349.00 37.00 C 355.13 37.19 361.93 36.06 366.00 39.00
C 368.67 40.92 370.09 42.03 369.00 47.00
C 360.33 47.00 351.67 47.00 343.00 47.00
C 342.46 52.61 344.16 58.82 342.00 64.00
C 349.33 64.00 356.67 64.00 364.00 64.00
C 367.39 77.19 350.59 70.35 343.00 72.00
C 343.00 78.33 343.00 84.67 343.00 91.00
C 345.91 93.04 352.41 89.94 356.00 91.00 C 359.59 92.06 365.22 90.20 369.00 91.00
C 372.02 100.94 362.82 99.11 356.00 99.00 C 349.18 98.89 341.86 99.08 335.00 99.00
C 333.46 98.91 331.92 98.14 331.00 98.00
C 329.71 97.80 328.31 98.10 327.00 98.00
C 324.20 98.83 318.55 101.95 319.00 95.00 C 319.46 88.05 318.87 85.55 319.00 79.00
C 318.00 84.91 314.41 91.29 315.00 98.00
C 313.33 98.00 311.67 98.00 310.00 98.00
C 308.88 98.21 306.78 99.86 305.00 99.00
C 303.75 93.18 303.87 84.62 300.00 81.00
C 300.25 84.62 301.59 97.25 298.00 98.00
C 297.19 98.17 295.72 97.63 295.00 98.00
C 293.44 98.80 290.55 101.54 287.00 100.00
C 287.00 79.00 287.00 58.00 287.00 37.00
C 289.76 37.84 295.57 35.04 296.00 39.00
M 67.00 39.00 
C 73.88 39.98 82.26 42.01 84.00 50.00
C 84.00 47.24 82.74 39.58 85.00 38.00
C 88.55 35.52 101.61 38.51 105.00 39.00
C 106.99 39.08 108.63 39.72 110.00 40.00
C 120.09 40.42 130.73 51.23 124.00 63.00
C 136.56 61.86 149.41 63.85 162.00 63.00
C 164.43 73.04 153.94 69.66 147.00 70.00 C 140.06 70.34 131.12 69.75 124.00 70.00
C 124.00 68.00 124.00 66.00 124.00 64.00
C 120.93 66.94 117.76 69.97 114.00 72.00
C 118.21 80.82 123.09 89.54 126.00 99.00
C 124.67 99.00 123.33 99.00 122.00 99.00
C 118.02 100.26 114.41 100.50 113.00 98.00
C 111.10 94.63 109.75 87.21 107.68 84.32 C 105.60 81.44 104.23 72.74 101.00 72.00
C 99.75 72.33 98.27 71.75 97.00 72.00
C 97.00 81.00 97.00 90.00 97.00 99.00
C 95.33 99.00 93.67 99.00 92.00 99.00
C 89.78 99.54 86.17 101.26 84.00 99.00
C 83.73 96.06 84.00 92.96 84.00 90.00
C 81.02 98.27 67.53 100.60 60.00 97.00
C 45.88 95.36 40.31 80.45 41.00 65.00 C 41.69 49.55 50.66 36.67 67.00 39.00
M 270.00 39.00 
C 271.19 39.42 272.78 38.68 274.00 39.00
C 274.00 59.00 274.00 79.00 274.00 99.00
C 272.67 99.00 271.33 99.00 270.00 99.00
C 268.26 99.61 264.61 101.31 263.00 99.00
C 259.84 94.49 264.46 84.73 263.00 79.00 C 261.54 73.27 263.73 65.31 263.00 59.00 C 262.27 52.69 263.55 44.48 263.00 38.00
C 265.19 38.52 268.62 36.86 270.00 39.00
M 391.00 39.00 
C 401.14 39.78 411.87 40.67 411.00 54.00
C 408.00 54.00 405.00 54.00 402.00 54.00
C 405.75 43.94 385.31 42.51 386.00 53.00 C 386.70 63.50 397.57 62.85 405.25 67.75 C 412.92 72.66 415.22 82.94 410.08 91.08 C 404.94 99.23 394.78 99.63 386.00 97.00
C 378.80 96.27 370.98 91.65 371.00 82.00
C 372.67 82.00 374.33 82.00 376.00 82.00
C 385.83 79.79 385.70 93.06 397.00 91.00
C 406.21 86.77 399.60 74.50 394.00 71.00
C 392.22 70.22 390.01 68.92 388.00 68.00
C 380.87 66.12 372.99 62.35 374.00 52.00 C 375.01 41.65 382.40 38.34 391.00 39.00 Z"/>
</g>
<g fill="#070707" fill-opacity="0.59" stroke="None">
<path d="
M 208.00 38.00 
C 209.68 36.95 212.08 38.93 213.00 39.00
C 214.71 39.13 216.03 38.12 217.00 38.00
C 215.11 37.59 209.81 35.41 208.00 38.00 Z"/>
</g>
<g fill="#000000" fill-opacity="0.85" stroke="None">
<path d="
M 295.00 98.00 
C 294.00 97.95 293.00 98.04 292.00 98.00
C 292.00 78.33 292.00 58.67 292.00 39.00
C 293.33 39.00 294.67 39.00 296.00 39.00
C 295.57 35.04 289.76 37.84 287.00 37.00
C 287.00 58.00 287.00 79.00 287.00 100.00
C 290.55 101.54 293.44 98.80 295.00 98.00 Z"/>
</g>
<g fill="#000000" fill-opacity="0.85" stroke="None">
<path d="
M 331.00 38.00 
C 328.27 41.90 331.74 53.00 331.00 58.00 C 330.26 63.00 330.25 73.01 331.00 78.00 C 331.75 82.99 328.26 94.14 331.00 98.00
C 331.92 98.14 333.46 98.91 335.00 99.00
C 335.60 92.93 334.20 85.98 335.00 80.00 C 335.80 74.02 333.53 65.57 335.00 60.00 C 336.47 54.43 331.89 44.44 335.00 40.00
C 337.35 36.64 345.90 39.99 350.00 39.00 C 354.10 38.01 361.59 39.74 366.00 39.00
C 361.93 36.06 355.13 37.19 349.00 37.00 C 342.87 36.81 336.43 37.03 331.00 38.00 Z"/>
</g>
<g fill="#000000" fill-opacity="1.00" stroke="None">
<path d="
M 60.00 97.00 
C 40.56 87.70 42.09 39.75 67.00 39.00
C 50.66 36.67 41.69 49.55 41.00 65.00 C 40.31 80.45 45.88 95.36 60.00 97.00 Z"/>
</g>
<g fill="#000000" fill-opacity="0.50" stroke="None">
<path d="
M 84.00 50.00 
C 84.00 51.66 83.91 53.35 84.00 55.00
C 84.28 50.13 85.87 43.59 85.00 38.00
C 82.74 39.58 84.00 47.24 84.00 50.00 Z"/>
</g>
<g fill="#000000" fill-opacity="0.99" stroke="None">
<path d="
M 84.00 55.00 
C 84.10 56.79 83.88 58.44 84.00 60.00
C 84.35 64.67 85.00 70.64 85.00 76.00
C 85.00 79.59 84.40 82.74 84.00 86.00
C 84.01 89.54 85.39 94.68 85.00 99.00
C 86.33 99.00 87.67 99.00 89.00 99.00
C 89.60 92.93 88.20 85.98 89.00 80.00 C 89.80 74.02 87.54 65.57 89.00 60.00 C 90.47 54.43 85.89 44.44 89.00 40.00
C 90.76 37.49 101.86 38.87 105.00 39.00
C 101.61 38.51 88.55 35.52 85.00 38.00
C 85.87 43.59 84.28 50.13 84.00 55.00 Z"/>
</g>
<g fill="#000000" fill-opacity="1.00" stroke="None">
<path d="
M 170.00 98.00 
C 172.84 96.05 171.11 86.73 173.32 83.32 C 175.54 79.92 175.49 73.12 176.98 68.98 C 178.46 64.83 179.86 59.17 180.78 54.78 C 181.69 50.39 184.73 44.60 184.00 40.00
C 180.84 33.78 178.62 43.87 177.78 48.78 C 176.93 53.68 173.94 59.69 172.99 64.99 C 172.05 70.29 170.42 76.66 168.93 81.93 C 167.43 87.19 165.86 92.57 165.00 98.00
C 166.65 98.15 168.36 97.80 170.00 98.00 Z"/>
</g>
<g fill="#F8F8F8" fill-opacity="0.92" stroke="None">
<path d="
M 184.00 40.00 
C 184.73 44.60 181.69 50.39 180.78 54.78 C 179.86 59.17 178.46 64.83 176.98 68.98 C 175.49 73.12 175.54 79.92 173.32 83.32 C 171.11 86.73 172.84 96.05 170.00 98.00
C 172.67 98.00 175.33 98.00 178.00 98.00
C 177.28 92.12 181.38 87.76 181.00 82.00
C 180.97 81.50 181.00 81.00 181.00 81.00
C 182.93 79.01 195.14 79.03 197.00 81.00
C 200.36 84.56 196.87 96.73 203.00 98.00
C 204.03 97.85 206.00 97.73 207.00 98.00
C 209.32 96.96 207.21 94.48 207.00 93.00
C 204.10 74.29 197.00 56.69 194.00 38.00
C 190.50 36.26 186.95 40.18 184.00 40.00
M 190.00 73.00 
C 188.04 73.29 185.97 72.78 184.00 73.00
C 183.98 69.17 186.81 66.07 186.00 62.00
C 186.59 58.71 187.56 54.71 189.00 52.00
C 191.01 58.90 193.16 65.77 194.00 73.00
C 192.67 73.00 191.33 73.00 190.00 73.00 Z"/>
</g>
<g fill="#000000" fill-opacity="0.96" stroke="None">
<path d="
M 207.00 93.00 
C 207.21 94.48 209.32 96.96 207.00 98.00
C 211.23 99.12 211.47 100.34 216.00 98.00
C 215.30 97.98 213.62 98.30 213.00 98.00
C 209.26 96.16 212.95 83.70 212.00 79.00 C 211.05 74.30 212.26 64.63 212.00 59.00 C 211.74 53.37 211.36 44.02 213.00 39.00
C 212.08 38.93 209.68 36.95 208.00 38.00
C 205.19 42.02 209.04 51.86 208.00 57.00 C 206.96 62.14 207.97 70.53 208.00 76.00 C 208.03 81.47 207.09 88.24 207.00 93.00 Z"/>
</g>
<g fill="#FAFAFA" fill-opacity="0.95" stroke="None">
<path d="
M 213.00 39.00 
C 213.00 58.67 213.00 78.33 213.00 98.00
C 213.62 98.30 215.30 97.98 216.00 98.00
C 217.33 98.00 218.67 98.00 220.00 98.00
C 219.37 87.38 220.84 76.60 220.00 66.00
C 219.71 62.31 217.48 57.16 220.00 54.00
C 225.69 68.81 232.64 83.10 238.00 98.00
C 239.64 98.15 241.36 98.00 243.00 98.00
C 243.91 98.00 245.11 98.19 246.00 98.00
C 246.66 78.09 244.68 57.47 247.00 38.00
C 245.78 37.19 241.28 38.70 240.00 39.00
C 243.03 44.26 238.61 54.91 240.00 61.00 C 241.39 67.09 239.79 76.55 239.00 82.00
C 238.39 79.22 236.93 76.72 236.00 74.00
C 233.01 61.37 226.16 50.18 222.00 38.00
C 220.39 37.74 218.59 38.34 217.00 38.00
C 216.03 38.12 214.71 39.13 213.00 39.00 Z"/>
</g>
<g fill="#020202" fill-opacity="1.00" stroke="None">
<path d="
M 236.00 74.00 
C 236.93 76.72 238.39 79.22 239.00 82.00
C 239.79 76.55 241.39 67.09 240.00 61.00 C 238.61 54.91 243.03 44.26 240.00 39.00
C 239.73 37.53 238.00 38.11 237.00 38.00
C 238.60 49.70 235.31 63.10 236.00 74.00 Z"/>
</g>
<g fill="#FFFFFF" fill-opacity="0.46" stroke="None">
<path d="
M 246.00 98.00 
C 250.06 97.16 247.86 83.56 248.00 79.00 C 248.14 74.44 248.76 62.60 248.00 58.00 C 247.24 53.40 250.65 40.42 247.00 38.00
C 244.68 57.47 246.66 78.09 246.00 98.00 Z"/>
</g>
<g fill="#000000" fill-opacity="0.99" stroke="None">
<path d="
M 263.00 99.00 
C 264.00 99.00 265.00 99.00 266.00 99.00
C 265.12 89.29 265.80 76.52 266.00 67.00 C 266.20 57.48 262.78 43.43 270.00 39.00
C 268.62 36.86 265.19 38.52 263.00 38.00
C 263.55 44.48 262.27 52.69 263.00 59.00 C 263.73 65.31 261.54 73.27 263.00 79.00 C 264.46 84.73 259.84 94.49 263.00 99.00 Z"/>
</g>
<g fill="#F5F5F5" fill-opacity="0.93" stroke="None">
<path d="
M 296.00 39.00 
C 294.67 39.00 293.33 39.00 292.00 39.00
C 292.00 58.67 292.00 78.33 292.00 98.00
C 293.00 98.04 294.00 97.95 295.00 98.00
C 295.72 97.63 297.19 98.17 298.00 98.00
C 297.46 89.72 298.27 80.50 299.00 73.00
C 298.65 67.90 298.43 61.29 300.00 57.00
C 303.32 70.51 304.24 85.83 310.00 98.00
C 311.67 98.00 313.33 98.00 315.00 98.00
C 314.41 91.29 318.00 84.91 319.00 79.00
C 319.07 75.38 319.41 72.43 320.00 69.00
C 320.69 64.98 322.12 61.25 322.00 57.00
C 324.32 69.43 322.34 83.82 323.00 97.00
C 324.52 97.56 325.28 97.87 327.00 98.00
C 328.31 98.10 329.71 97.80 331.00 98.00
C 328.26 94.14 331.75 82.99 331.00 78.00 C 330.25 73.01 330.26 63.00 331.00 58.00 C 331.74 53.00 328.27 41.90 331.00 38.00
C 327.91 38.55 325.14 38.70 322.00 39.00
C 317.49 42.16 319.15 54.09 316.22 59.22 C 313.30 64.36 314.87 75.18 311.00 80.00
C 309.57 77.96 309.53 74.64 309.00 72.00
C 307.62 60.36 303.57 49.51 302.00 38.00
C 300.16 36.83 297.43 39.21 296.00 39.00 Z"/>
</g>
<g fill="#030303" fill-opacity="0.99" stroke="None">
<path d="
M 309.00 72.00 
C 309.53 74.64 309.57 77.96 311.00 80.00
C 314.87 75.18 313.30 64.36 316.22 59.22 C 319.15 54.09 317.49 42.16 322.00 39.00
C 321.50 37.24 319.28 38.28 318.00 38.00
C 318.33 49.65 310.56 62.51 309.00 72.00 Z"/>
</g>
<g fill="#010101" fill-opacity="1.00" stroke="None">
<path d="
M 388.00 68.00 
C 374.58 61.87 374.49 41.20 391.00 39.00
C 382.40 38.34 375.01 41.65 374.00 52.00 C 372.99 62.35 380.87 66.12 388.00 68.00 Z"/>
</g>
<g fill="#F60000" fill-opacity="0.91" stroke="None">
<path d="
M 60.00 97.00 
C 67.53 100.60 81.02 98.27 84.00 90.00
C 84.00 88.70 83.84 87.29 84.00 86.00
C 84.40 82.74 85.00 79.59 85.00 76.00
C 85.00 76.04 84.00 76.00 84.00 76.00
C 82.68 76.00 81.32 75.91 80.00 76.00
C 76.55 77.14 77.76 83.75 75.69 86.69 C 73.63 89.64 70.39 92.62 66.00 92.00
C 56.76 90.70 55.12 75.40 55.00 68.00 C 54.88 60.60 57.94 46.00 68.00 46.00
C 76.73 46.00 73.29 53.23 76.00 58.00
C 77.08 58.57 81.07 62.05 84.00 60.00
C 83.88 58.44 84.10 56.79 84.00 55.00
C 83.91 53.35 84.00 51.66 84.00 50.00
C 82.26 42.01 73.88 39.98 67.00 39.00
C 42.09 39.75 40.56 87.70 60.00 97.00 Z"/>
</g>
<g fill="#590000" fill-opacity="1.00" stroke="None">
<path d="
M 89.00 40.00 
C 95.99 40.22 103.01 39.71 110.00 40.00
C 108.63 39.72 106.99 39.08 105.00 39.00
C 101.86 38.87 90.76 37.49 89.00 40.00 Z"/>
</g>
<g fill="#6E6E6E" fill-opacity="1.00" stroke="None">
<path d="
M 213.00 98.00 
C 213.00 78.33 213.00 58.67 213.00 39.00
C 211.36 44.02 211.74 53.37 212.00 59.00 C 212.26 64.63 211.05 74.30 212.00 79.00 C 212.95 83.70 209.26 96.16 213.00 98.00 Z"/>
</g>
<g fill="#6D6D6D" fill-opacity="1.00" stroke="None">
<path d="
M 266.00 99.00 
C 266.50 99.00 267.00 99.00 267.00 99.00
C 268.76 79.49 265.68 59.55 267.00 40.00
C 268.00 39.89 269.73 40.47 270.00 39.00
C 262.78 43.43 266.20 57.48 266.00 67.00 C 265.80 76.52 265.12 89.29 266.00 99.00 Z"/>
</g>
<g fill="#FEFEFE" fill-opacity="0.91" stroke="None">
<path d="
M 267.00 99.00 
C 268.00 99.00 269.00 98.97 270.00 99.00
C 271.33 99.00 272.67 99.00 274.00 99.00
C 274.00 79.00 274.00 59.00 274.00 39.00
C 272.78 38.68 271.19 39.42 270.00 39.00
C 269.73 40.47 268.00 39.89 267.00 40.00
C 265.68 59.55 268.76 79.49 267.00 99.00 Z"/>
</g>
<g fill="#606060" fill-opacity="0.99" stroke="None">
<path d="
M 335.00 40.00 
C 344.41 42.55 357.67 37.04 366.00 39.00
C 361.59 39.74 354.10 38.01 350.00 39.00 C 345.90 39.99 337.35 36.64 335.00 40.00 Z"/>
</g>
<g fill="#F7F8F7" fill-opacity="0.92" stroke="None">
<path d="
M 335.00 40.00 
C 331.89 44.44 336.47 54.43 335.00 60.00 C 333.53 65.57 335.80 74.02 335.00 80.00 C 334.20 85.98 335.60 92.93 335.00 99.00
C 341.86 99.08 349.18 98.89 356.00 99.00 C 362.82 99.11 372.02 100.94 369.00 91.00
C 365.22 90.20 359.59 92.06 356.00 91.00 C 352.41 89.94 345.91 93.04 343.00 91.00
C 340.92 89.54 340.99 73.41 343.00 72.00
C 350.59 70.35 367.39 77.19 364.00 64.00
C 356.67 64.00 349.33 64.00 342.00 64.00
C 344.16 58.82 342.46 52.61 343.00 47.00
C 351.67 47.00 360.33 47.00 369.00 47.00
C 370.09 42.03 368.67 40.92 366.00 39.00
C 357.67 37.04 344.41 42.55 335.00 40.00 Z"/>
</g>
<g fill="#F9F9F9" fill-opacity="0.88" stroke="None">
<path d="
M 388.00 68.00 
C 390.01 68.92 392.22 70.22 394.00 71.00
C 402.54 74.73 411.66 88.32 397.00 91.00
C 385.70 93.06 385.83 79.79 376.00 82.00
C 372.63 87.03 382.14 95.59 386.00 97.00
C 394.78 99.63 404.94 99.23 410.08 91.08 C 415.22 82.94 412.92 72.66 405.25 67.75 C 397.57 62.85 386.70 63.50 386.00 53.00 C 385.31 42.51 405.75 43.94 402.00 54.00
C 405.00 54.00 408.00 54.00 411.00 54.00
C 411.87 40.67 401.14 39.78 391.00 39.00
C 374.49 41.20 374.58 61.87 388.00 68.00 Z"/>
</g>
<g fill="#F80000" fill-opacity="0.90" stroke="None">
<path d="
M 89.00 99.00 
C 89.99 99.00 91.01 98.94 92.00 99.00
C 93.67 99.00 95.33 99.00 97.00 99.00
C 97.00 90.00 97.00 81.00 97.00 72.00
C 98.27 71.75 99.75 72.33 101.00 72.00
C 108.15 70.12 106.10 79.52 109.92 83.08 C 113.75 86.63 112.65 97.16 117.00 99.00
C 118.50 99.22 120.49 99.15 122.00 99.00
C 123.33 99.00 124.67 99.00 126.00 99.00
C 123.09 89.54 118.21 80.82 114.00 72.00
C 117.76 69.97 120.93 66.94 124.00 64.00
C 124.09 63.52 124.00 63.00 124.00 63.00
C 130.73 51.23 120.09 40.42 110.00 40.00
C 103.01 39.71 95.99 40.22 89.00 40.00
C 85.89 44.44 90.47 54.43 89.00 60.00 C 87.54 65.57 89.80 74.02 89.00 80.00 C 88.20 85.98 89.60 92.93 89.00 99.00
M 112.00 48.00 
C 122.43 51.95 115.82 63.40 107.00 64.00
C 103.35 64.25 99.65 63.81 96.00 64.00
C 98.17 58.82 96.45 52.60 97.00 47.00
C 102.13 46.90 107.19 46.82 112.00 48.00 Z"/>
</g>
<g fill="#000000" fill-opacity="0.02" stroke="None">
<path d="
M 66.00 92.00 
C 71.31 91.57 72.92 80.79 73.00 77.00
C 75.61 77.67 77.45 75.66 80.00 76.00
C 81.32 75.91 82.68 76.00 84.00 76.00
C 83.52 70.71 84.36 65.30 84.00 60.00
C 81.07 62.05 77.08 58.57 76.00 58.00
C 74.96 57.45 73.11 58.42 72.00 58.00
C 71.88 53.66 70.78 49.39 68.00 46.00
C 57.94 46.00 54.88 60.60 55.00 68.00 C 55.12 75.40 56.76 90.70 66.00 92.00 Z"/>
</g>
<g fill="#000000" fill-opacity="1.00" stroke="None">
<path d="
M 76.00 58.00 
C 73.29 53.23 76.73 46.00 68.00 46.00
C 70.78 49.39 71.88 53.66 72.00 58.00
C 73.11 58.42 74.96 57.45 76.00 58.00 Z"/>
</g>
<g fill="#000000" fill-opacity="0.09" stroke="None">
<path d="
M 107.00 64.00 
C 112.11 62.68 118.03 52.26 112.00 48.00
C 107.19 46.82 102.13 46.90 97.00 47.00
C 96.45 52.60 98.17 58.82 96.00 64.00
C 99.65 63.81 103.35 64.25 107.00 64.00 Z"/>
</g>
<g fill="#050000" fill-opacity="1.00" stroke="None">
<path d="
M 107.00 64.00 
C 115.82 63.40 122.43 51.95 112.00 48.00
C 118.03 52.26 112.11 62.68 107.00 64.00 Z"/>
</g>
<g fill="#010101" fill-opacity="0.99" stroke="None">
<path d="
M 186.00 62.00 
C 185.98 61.85 190.32 73.21 190.00 73.00
C 191.33 73.00 192.67 73.00 194.00 73.00
C 193.16 65.77 191.01 58.90 189.00 52.00
C 187.56 54.71 186.59 58.71 186.00 62.00 Z"/>
</g>
<g fill="#020202" fill-opacity="0.99" stroke="None">
<path d="
M 220.00 66.00 
C 221.68 69.94 225.92 76.21 227.69 81.31 C 229.47 86.40 231.31 92.56 234.00 97.00
C 235.20 98.04 236.52 97.87 238.00 98.00
C 232.64 83.10 225.69 68.81 220.00 54.00
C 217.48 57.16 219.71 62.31 220.00 66.00 Z"/>
</g>
<g fill="#020202" fill-opacity="0.96" stroke="None">
<path d="
M 299.00 73.00 
C 299.19 75.85 299.80 78.12 300.00 81.00
C 303.87 84.62 303.75 93.18 305.00 99.00
C 306.78 99.86 308.88 98.21 310.00 98.00
C 304.24 85.83 303.32 70.51 300.00 57.00
C 298.43 61.29 298.65 67.90 299.00 73.00 Z"/>
</g>
<g fill="#000000" fill-opacity="1.00" stroke="None">
<path d="
M 320.00 69.00 
C 320.08 73.31 321.58 78.89 321.00 84.00 C 320.42 89.11 320.39 96.05 323.00 97.00
C 322.34 83.82 324.32 69.43 322.00 57.00
C 322.12 61.25 320.69 64.98 320.00 69.00 Z"/>
</g>
<g fill="#000000" fill-opacity="0.50" stroke="None">
<path d="
M 84.00 76.00 
C 84.00 76.00 85.00 76.04 85.00 76.00
C 85.00 70.64 84.35 64.67 84.00 60.00
C 84.36 65.30 83.52 70.71 84.00 76.00 Z"/>
</g>
<g fill="#000000" fill-opacity="0.13" stroke="None">
<path d="
M 190.00 73.00 
C 190.32 73.21 185.98 61.85 186.00 62.00
C 186.81 66.07 183.98 69.17 184.00 73.00
C 185.97 72.78 188.04 73.29 190.00 73.00 Z"/>
</g>
<g fill="#000000" fill-opacity="0.82" stroke="None">
<path d="
M 124.00 64.00 
C 124.00 66.00 124.00 68.00 124.00 70.00
C 131.12 69.75 140.06 70.34 147.00 70.00 C 153.94 69.66 164.43 73.04 162.00 63.00
C 149.41 63.85 136.56 61.86 124.00 63.00
C 124.00 63.00 124.09 63.52 124.00 64.00 Z"/>
</g>
<g fill="#000000" fill-opacity="0.55" stroke="None">
<path d="
M 319.00 79.00 
C 318.87 85.55 319.46 88.05 319.00 95.00 C 318.55 101.95 324.20 98.83 327.00 98.00
C 325.28 97.87 324.52 97.56 323.00 97.00
C 320.39 96.05 320.42 89.11 321.00 84.00 C 321.58 78.89 320.08 73.31 320.00 69.00
C 319.41 72.43 319.07 75.38 319.00 79.00 Z"/>
</g>
<g fill="#020000" fill-opacity="0.99" stroke="None">
<path d="
M 101.00 72.00 
C 104.23 72.74 105.60 81.44 107.68 84.32 C 109.75 87.21 111.10 94.63 113.00 98.00
C 113.17 98.12 116.54 98.93 117.00 99.00
C 112.65 97.16 113.75 86.63 109.92 83.08 C 106.10 79.52 108.15 70.12 101.00 72.00 Z"/>
</g>
<g fill="#040404" fill-opacity="0.98" stroke="None">
<path d="
M 397.00 91.00 
C 411.66 88.32 402.54 74.73 394.00 71.00
C 399.60 74.50 406.21 86.77 397.00 91.00 Z"/>
</g>
<g fill="#FFFFFF" fill-opacity="0.09" stroke="None">
<path d="
M 343.00 91.00 
C 343.00 84.67 343.00 78.33 343.00 72.00
C 340.99 73.41 340.92 89.54 343.00 91.00 Z"/>
</g>
<g fill="#FDFDFD" fill-opacity="0.48" stroke="None">
<path d="
M 298.00 98.00 
C 301.59 97.25 300.25 84.62 300.00 81.00
C 299.80 78.12 299.19 75.85 299.00 73.00
C 298.27 80.50 297.46 89.72 298.00 98.00 Z"/>
</g>
<g fill="#030000" fill-opacity="0.99" stroke="None">
<path d="
M 66.00 92.00 
C 70.39 92.62 73.63 89.64 75.69 86.69 C 77.76 83.75 76.55 77.14 80.00 76.00
C 77.45 75.66 75.61 77.67 73.00 77.00
C 72.92 80.79 71.31 91.57 66.00 92.00 Z"/>
</g>
<g fill="#A0A0A0" fill-opacity="0.96" stroke="None">
<path d="
M 181.00 81.00 
C 184.60 80.67 188.38 81.00 192.00 81.00
C 193.67 81.00 195.33 81.00 197.00 81.00
C 195.14 79.03 182.93 79.01 181.00 81.00 Z"/>
</g>
<g fill="#000000" fill-opacity="0.28" stroke="None">
<path d="
M 181.00 82.00 
C 184.47 82.31 188.53 82.31 192.00 82.00
C 191.76 81.70 192.00 81.00 192.00 81.00
C 188.38 81.00 184.60 80.67 181.00 81.00
C 181.00 81.00 180.97 81.50 181.00 82.00 Z"/>
</g>
<g fill="#000000" fill-opacity="0.99" stroke="None">
<path d="
M 192.00 82.00 
C 197.58 88.87 191.61 99.61 203.00 98.00
C 196.87 96.73 200.36 84.56 197.00 81.00
C 195.33 81.00 193.67 81.00 192.00 81.00
C 192.00 81.00 191.76 81.70 192.00 82.00 Z"/>
</g>
<g fill="#020202" fill-opacity="1.00" stroke="None">
<path d="
M 386.00 97.00 
C 382.14 95.59 372.63 87.03 376.00 82.00
C 374.33 82.00 372.67 82.00 371.00 82.00
C 370.98 91.65 378.80 96.27 386.00 97.00 Z"/>
</g>
<g fill="#000000" fill-opacity="0.50" stroke="None">
<path d="
M 84.00 90.00 
C 84.00 92.96 83.73 96.06 84.00 99.00
C 84.00 99.04 85.00 99.00 85.00 99.00
C 85.39 94.68 84.01 89.54 84.00 86.00
C 83.84 87.29 84.00 88.70 84.00 90.00 Z"/>
</g>
<g fill="#000000" fill-opacity="0.52" stroke="None">
<path d="
M 243.00 98.00 
C 241.36 98.00 239.64 98.15 238.00 98.00
C 236.52 97.87 235.20 98.04 234.00 97.00
C 234.00 98.00 234.00 99.00 234.00 100.00
C 238.42 101.76 242.27 98.58 243.00 98.00 Z"/>
</g>
<g fill="#000000" fill-opacity="0.33" stroke="None">
<path d="
M 122.00 99.00 
C 120.49 99.15 118.50 99.22 117.00 99.00
C 116.54 98.93 113.17 98.12 113.00 98.00
C 114.41 100.50 118.02 100.26 122.00 99.00 Z"/>
</g>
<g fill="#000000" fill-opacity="0.16" stroke="None">
<path d="
M 92.00 99.00 
C 91.01 98.94 89.99 99.00 89.00 99.00
C 87.67 99.00 86.33 99.00 85.00 99.00
C 85.00 99.00 84.00 99.04 84.00 99.00
C 86.17 101.26 89.78 99.54 92.00 99.00 Z"/>
</g>
<g fill="#000000" fill-opacity="0.18" stroke="None">
<path d="
M 270.00 99.00 
C 269.00 98.97 268.00 99.00 267.00 99.00
C 267.00 99.00 266.50 99.00 266.00 99.00
C 265.00 99.00 264.00 99.00 263.00 99.00
C 264.61 101.31 268.26 99.61 270.00 99.00 Z"/>
</g>
</svg>